<svg width="80" height="80" viewBox="0 0 80 80" fill="none" xmlns="http://www.w3.org/2000/svg">
<path d="M12 0C5.37258 0 0 5.37258 0 12V68C0 74.6274 5.37258 80 12 80H40V70H18C13.5817 70 10 66.4183 10 62V18C10 13.5817 13.5817 10 18 10H40V0H12Z" fill="#D62828"/>
<path d="M40 40H50V70C50 75.5228 45.5228 80 40 80V40Z" fill="#D62828"/>
<path fill-rule="evenodd" clip-rule="evenodd" d="M68 0H40V40H68C74.6274 40 80 34.6274 80 28V12C80 5.37259 74.6274 0 68 0ZM62 10H50V30H62C66.4183 30 70 26.4183 70 22V18C70 13.5817 66.4183 10 62 10Z" fill="#D62828"/>
</svg>
